<svg viewBox="0 0 32 32" xmlns="http://www.w3.org/2000/svg" width="320" height="320">
  <!-- Fondo transparente -->
  <rect width="32" height="32" fill="none"/>
  
  <!-- Sombra del reloj -->
  <rect x="7" y="25" width="18" height="2" fill="#d4a5a5" opacity="0.3"/>
  
  <!-- Cuerpo del reloj (círculo en pixel art) -->
  <rect x="10" y="6" width="12" height="2" fill="#ffcdd2"/>
  <rect x="8" y="8" width="16" height="2" fill="#ffcdd2"/>
  <rect x="6" y="10" width="20" height="12" fill="#ffcdd2"/>
  <rect x="8" y="22" width="16" height="2" fill="#ffcdd2"/>
  <rect x="10" y="24" width="12" height="2" fill="#ffcdd2"/>
  
  <!-- Borde oscuro del reloj -->
  <rect x="10" y="6" width="12" height="2" fill="#e57373" opacity="0.5"/>
  <rect x="22" y="10" width="2" height="12" fill="#e57373" opacity="0.5"/>
  <rect x="10" y="24" width="12" height="2" fill="#e57373" opacity="0.5"/>
  <rect x="6" y="10" width="2" height="12" fill="#ef9a9a"/>
  
  <!-- Cara del reloj (interior) -->
  <rect x="10" y="10" width="12" height="2" fill="#fff9c4"/>
  <rect x="8" y="12" width="16" height="8" fill="#fff9c4"/>
  <rect x="10" y="20" width="12" height="2" fill="#fff9c4"/>
  
  <!-- Números en las 12, 3, 6, 9 -->
  <rect x="15" y="11" width="2" height="2" fill="#8d6e63"/>
  <rect x="19" y="15" width="2" height="2" fill="#8d6e63"/>
  <rect x="15" y="19" width="2" height="2" fill="#8d6e63"/>
  <rect x="11" y="15" width="2" height="2" fill="#8d6e63"/>
  
  <!-- Manecillas del reloj -->
  <!-- Manecilla de minutos (larga) -->
  <rect x="15" y="13" width="2" height="3" fill="#5d4037"/>
  
  <!-- Manecilla de horas (corta) -->
  <rect x="16" y="15" width="3" height="2" fill="#5d4037"/>
  
  <!-- Centro del reloj -->
  <rect x="15" y="15" width="2" height="2" fill="#3e2723"/>
  
  <!-- Campanita arriba (cute detail) -->
  <rect x="14" y="4" width="4" height="2" fill="#ffd54f"/>
  <rect x="15" y="3" width="2" height="1" fill="#ffd54f"/>
  <rect x="16" y="2" width="2" height="1" fill="#ffb74d"/>
  
  <!-- Patitas del reloj -->
  <rect x="11" y="26" width="2" height="3" fill="#ffb74d"/>
  <rect x="19" y="26" width="2" height="3" fill="#ffb74d"/>
  
  <!-- Carita cute -->
  <!-- Ojos -->
  <rect x="13" y="14" width="1" height="1" fill="#3e2723"/>
  <rect x="18" y="14" width="1" height="1" fill="#3e2723"/>
  
  <!-- Sonrisa -->
  <rect x="14" y="17" width="1" height="1" fill="#f48fb1"/>
  <rect x="15" y="18" width="2" height="1" fill="#f48fb1"/>
  <rect x="17" y="17" width="1" height="1" fill="#f48fb1"/>
  
  <!-- Brillos cute -->
  <rect x="12" y="12" width="1" height="1" fill="#ffffff" opacity="0.8"/>
  <rect x="19" y="12" width="1" height="1" fill="#ffffff" opacity="0.8"/>
</svg>